<svg viewBox="0 0 86 11" fill="currentColor" xmlns="http://www.w3.org/2000/svg">
  <path d="M10.4216 4.94134C10.011 2.43411 7.6457 0.734375 5.13847 1.14492C2.63124 1.55547 0.931547 3.92083 1.34209 6.42806C1.75264 8.93529 4.11796 10.635 6.62519 10.2244C9.13242 9.81387 10.8321 7.44857 10.4216 4.94134Z" fill="#4034AB" stroke="#4034AB"/>
  <path d="M29.1223 4.94134C28.7117 2.43411 26.3464 0.734375 23.8391 1.14492C21.3319 1.55547 19.6322 3.92083 20.0428 6.42806C20.4533 8.93529 22.8186 10.635 25.3259 10.2244C27.8331 9.81387 29.5328 7.44857 29.1223 4.94134Z" fill="#4034AB" stroke="#4034AB"/>
  <path d="M47.8885 5.72278C47.8885 3.12278 45.7885 1.12274 43.2885 1.12274C40.6885 1.12274 38.6885 3.22278 38.6885 5.72278C38.6885 8.32278 40.7885 10.3228 43.2885 10.3228C45.7885 10.3228 47.8885 8.22278 47.8885 5.72278Z" fill="#4034AB" stroke="#4034AB"/>
  <path d="M66.5882 5.72278C66.5882 3.12278 64.4882 1.12274 61.9882 1.12274C59.3882 1.12274 57.3882 3.22278 57.3882 5.72278C57.3882 8.32278 59.4882 10.3228 61.9882 10.3228C64.4882 10.3228 66.5882 8.22278 66.5882 5.72278Z" fill="#4034AB" stroke="#4034AB"/>
  <path d="M85.2248 4.94085C84.8142 2.43362 82.4489 0.733888 79.9417 1.14443C77.4345 1.55498 75.7348 3.92034 76.1453 6.42757C76.5559 8.9348 78.9212 10.6345 81.4284 10.2239C83.9356 9.81338 85.6353 7.44808 85.2248 4.94085Z" fill="#4034AB" stroke="#4034AB"/>
</svg>