<svg viewBox="0 0 67 60" fill="currentColor" xmlns="http://www.w3.org/2000/svg">
  <path d="M26.5998 0.700195L52.4998 46.0002L0.299805 45.8002L11.3998 26.7002L26.5998 0.700195Z" fill="#4034AB" stroke="#4034AB"/>
  <path d="M52.4997 36.6003C46.2997 37.9003 42.2997 44.0003 43.5997 50.1003C44.8997 56.3004 50.9997 60.3004 57.0997 59.0004C63.2997 57.7004 67.2997 51.6004 65.9997 45.5004C64.7997 39.3004 58.6997 35.4003 52.4997 36.6003ZM53.3997 40.9004C57.1997 40.1004 60.9997 42.6004 61.6997 46.4004C62.4997 50.2004 59.9997 54.0004 56.1997 54.7004C52.3997 55.5004 48.5997 53.0004 47.8997 49.2004C47.1997 45.4004 49.5997 41.7004 53.3997 40.9004Z" fill="#4034AB" stroke="#4034AB"/>
</svg>